<mxfile host="app.diagrams.net" agent="Mozilla/5.0 (Windows NT 10.0; Win64; x64) AppleWebKit/537.36 (KHTML, like Gecko) Chrome/129.0.0.0 Safari/537.36" version="24.7.16">
  <diagram id="C5RBs43oDa-KdzZeNtuy" name="Page-1">
    <mxGraphModel dx="343" dy="441" grid="1" gridSize="10" guides="1" tooltips="1" connect="1" arrows="1" fold="1" page="1" pageScale="1" pageWidth="827" pageHeight="1169" math="0" shadow="0">
      <root>
        <mxCell id="WIyWlLk6GJQsqaUBKTNV-0" />
        <mxCell id="WIyWlLk6GJQsqaUBKTNV-1" parent="WIyWlLk6GJQsqaUBKTNV-0" />
        <mxCell id="zkfFHV4jXpPFQw0GAbJ--0" value="Vehicle" style="swimlane;fontStyle=2;align=center;verticalAlign=top;childLayout=stackLayout;horizontal=1;startSize=26;horizontalStack=0;resizeParent=1;resizeLast=0;collapsible=1;marginBottom=0;rounded=0;shadow=0;strokeWidth=2;" parent="WIyWlLk6GJQsqaUBKTNV-1" vertex="1">
          <mxGeometry x="240" y="302" width="180" height="166" as="geometry">
            <mxRectangle x="230" y="140" width="160" height="26" as="alternateBounds" />
          </mxGeometry>
        </mxCell>
        <mxCell id="zkfFHV4jXpPFQw0GAbJ--1" value="- typeOfVehicle: string&#xa;- speed: float" style="text;align=left;verticalAlign=top;spacingLeft=4;spacingRight=4;overflow=hidden;rotatable=0;points=[[0,0.5],[1,0.5]];portConstraint=eastwest;" parent="zkfFHV4jXpPFQw0GAbJ--0" vertex="1">
          <mxGeometry y="26" width="180" height="44" as="geometry" />
        </mxCell>
        <mxCell id="zkfFHV4jXpPFQw0GAbJ--4" value="" style="line;html=1;strokeWidth=1;align=left;verticalAlign=middle;spacingTop=-1;spacingLeft=3;spacingRight=3;rotatable=0;labelPosition=right;points=[];portConstraint=eastwest;" parent="zkfFHV4jXpPFQw0GAbJ--0" vertex="1">
          <mxGeometry y="70" width="180" height="8" as="geometry" />
        </mxCell>
        <mxCell id="zkfFHV4jXpPFQw0GAbJ--5" value="+ ToString(): string&#xa;+ GetTypeOfVehicle(): string&#xa;+ GetPlate(): string&#xa;+ GetSpeed(): float&#xa;+ SetSpeed(speed: float): void" style="text;align=left;verticalAlign=top;spacingLeft=4;spacingRight=4;overflow=hidden;rotatable=0;points=[[0,0.5],[1,0.5]];portConstraint=eastwest;" parent="zkfFHV4jXpPFQw0GAbJ--0" vertex="1">
          <mxGeometry y="78" width="180" height="88" as="geometry" />
        </mxCell>
        <mxCell id="zkfFHV4jXpPFQw0GAbJ--6" value="SpeedRadar" style="swimlane;fontStyle=0;align=center;verticalAlign=top;childLayout=stackLayout;horizontal=1;startSize=26;horizontalStack=0;resizeParent=1;resizeLast=0;collapsible=1;marginBottom=0;rounded=0;shadow=0;strokeWidth=2;" parent="WIyWlLk6GJQsqaUBKTNV-1" vertex="1">
          <mxGeometry x="480" y="550" width="210" height="157" as="geometry">
            <mxRectangle x="130" y="380" width="160" height="26" as="alternateBounds" />
          </mxGeometry>
        </mxCell>
        <mxCell id="zkfFHV4jXpPFQw0GAbJ--7" value="- plate: string&#xa;- speed: float&#xa;- legalSpeed: float&#xa;+ SpeedHistory: List&lt;float&gt;&#xa;" style="text;align=left;verticalAlign=top;spacingLeft=4;spacingRight=4;overflow=hidden;rotatable=0;points=[[0,0.5],[1,0.5]];portConstraint=eastwest;fontStyle=0" parent="zkfFHV4jXpPFQw0GAbJ--6" vertex="1">
          <mxGeometry y="26" width="210" height="64" as="geometry" />
        </mxCell>
        <mxCell id="zkfFHV4jXpPFQw0GAbJ--9" value="" style="line;html=1;strokeWidth=1;align=left;verticalAlign=middle;spacingTop=-1;spacingLeft=3;spacingRight=3;rotatable=0;labelPosition=right;points=[];portConstraint=eastwest;" parent="zkfFHV4jXpPFQw0GAbJ--6" vertex="1">
          <mxGeometry y="90" width="210" height="18" as="geometry" />
        </mxCell>
        <mxCell id="zkfFHV4jXpPFQw0GAbJ--10" value="+ TriggerRadar(vehicle: Vehicle): void&#xa;+ GetLastingRead(): string" style="text;align=left;verticalAlign=top;spacingLeft=4;spacingRight=4;overflow=hidden;rotatable=0;points=[[0,0.5],[1,0.5]];portConstraint=eastwest;fontStyle=0" parent="zkfFHV4jXpPFQw0GAbJ--6" vertex="1">
          <mxGeometry y="108" width="210" height="42" as="geometry" />
        </mxCell>
        <mxCell id="zkfFHV4jXpPFQw0GAbJ--17" value="Taxi" style="swimlane;fontStyle=0;align=center;verticalAlign=top;childLayout=stackLayout;horizontal=1;startSize=26;horizontalStack=0;resizeParent=1;resizeLast=0;collapsible=1;marginBottom=0;rounded=0;shadow=0;strokeWidth=2;" parent="WIyWlLk6GJQsqaUBKTNV-1" vertex="1">
          <mxGeometry x="30" y="683" width="180" height="120" as="geometry">
            <mxRectangle x="550" y="140" width="160" height="26" as="alternateBounds" />
          </mxGeometry>
        </mxCell>
        <mxCell id="zkfFHV4jXpPFQw0GAbJ--22" value="- isCarryingPassengers: bool&#xa;- typeOfVehicle: string" style="text;align=left;verticalAlign=top;spacingLeft=4;spacingRight=4;overflow=hidden;rotatable=0;points=[[0,0.5],[1,0.5]];portConstraint=eastwest;rounded=0;shadow=0;html=0;" parent="zkfFHV4jXpPFQw0GAbJ--17" vertex="1">
          <mxGeometry y="26" width="180" height="44" as="geometry" />
        </mxCell>
        <mxCell id="zkfFHV4jXpPFQw0GAbJ--23" value="" style="line;html=1;strokeWidth=1;align=left;verticalAlign=middle;spacingTop=-1;spacingLeft=3;spacingRight=3;rotatable=0;labelPosition=right;points=[];portConstraint=eastwest;" parent="zkfFHV4jXpPFQw0GAbJ--17" vertex="1">
          <mxGeometry y="70" width="180" height="8" as="geometry" />
        </mxCell>
        <mxCell id="zkfFHV4jXpPFQw0GAbJ--24" value="+ StartRide(): void&#xa;+ StopRide(): void" style="text;align=left;verticalAlign=top;spacingLeft=4;spacingRight=4;overflow=hidden;rotatable=0;points=[[0,0.5],[1,0.5]];portConstraint=eastwest;" parent="zkfFHV4jXpPFQw0GAbJ--17" vertex="1">
          <mxGeometry y="78" width="180" height="40" as="geometry" />
        </mxCell>
        <mxCell id="KwqhPXOGH3jLfrvKoqNU-31" value="" style="endArrow=block;html=1;rounded=0;endFill=0;entryX=0;entryY=0.5;entryDx=0;entryDy=0;exitX=0.5;exitY=0;exitDx=0;exitDy=0;" parent="WIyWlLk6GJQsqaUBKTNV-1" source="u4cU2ETFYuCaejH-93tJ-0" target="zkfFHV4jXpPFQw0GAbJ--1" edge="1">
          <mxGeometry width="50" height="50" relative="1" as="geometry">
            <mxPoint x="50" y="339" as="sourcePoint" />
            <mxPoint x="280" y="220" as="targetPoint" />
            <Array as="points">
              <mxPoint x="110" y="350" />
            </Array>
          </mxGeometry>
        </mxCell>
        <mxCell id="KwqhPXOGH3jLfrvKoqNU-32" value="&lt;span style=&quot;color: rgba(0, 0, 0, 0); font-family: monospace; font-size: 0px; text-align: start; background-color: rgb(251, 251, 251);&quot;&gt;%3CmxGraphModel%3E%3Croot%3E%3CmxCell%20id%3D%220%22%2F%3E%3CmxCell%20id%3D%221%22%20parent%3D%220%22%2F%3E%3CmxCell%20id%3D%222%22%20value%3D%22Vehicle%22%20style%3D%22swimlane%3BfontStyle%3D2%3Balign%3Dcenter%3BverticalAlign%3Dtop%3BchildLayout%3DstackLayout%3Bhorizontal%3D1%3BstartSize%3D26%3BhorizontalStack%3D0%3BresizeParent%3D1%3BresizeLast%3D0%3Bcollapsible%3D1%3BmarginBottom%3D0%3Brounded%3D0%3Bshadow%3D0%3BstrokeWidth%3D2%3B%22%20vertex%3D%221%22%20parent%3D%221%22%3E%3CmxGeometry%20x%3D%22240%22%20y%3D%22300%22%20width%3D%22180%22%20height%3D%22200%22%20as%3D%22geometry%22%3E%3CmxRectangle%20x%3D%22230%22%20y%3D%22140%22%20width%3D%22160%22%20height%3D%2226%22%20as%3D%22alternateBounds%22%2F%3E%3C%2FmxGeometry%3E%3C%2FmxCell%3E%3CmxCell%20id%3D%223%22%20value%3D%22-%20typeOfVehicle%3A%20string%22%20style%3D%22text%3Balign%3Dleft%3BverticalAlign%3Dtop%3BspacingLeft%3D4%3BspacingRight%3D4%3Boverflow%3Dhidden%3Brotatable%3D0%3Bpoints%3D%5B%5B0%2C0.5%5D%2C%5B1%2C0.5%5D%5D%3BportConstraint%3Deastwest%3B%22%20vertex%3D%221%22%20parent%3D%222%22%3E%3CmxGeometry%20y%3D%2226%22%20width%3D%22180%22%20height%3D%2226%22%20as%3D%22geometry%22%2F%3E%3C%2FmxCell%3E%3CmxCell%20id%3D%224%22%20value%3D%22-%20plate%3A%20string%22%20style%3D%22text%3Balign%3Dleft%3BverticalAlign%3Dtop%3BspacingLeft%3D4%3BspacingRight%3D4%3Boverflow%3Dhidden%3Brotatable%3D0%3Bpoints%3D%5B%5B0%2C0.5%5D%2C%5B1%2C0.5%5D%5D%3BportConstraint%3Deastwest%3Brounded%3D0%3Bshadow%3D0%3Bhtml%3D0%3B%22%20vertex%3D%221%22%20parent%3D%222%22%3E%3CmxGeometry%20y%3D%2252%22%20width%3D%22180%22%20height%3D%2226%22%20as%3D%22geometry%22%2F%3E%3C%2FmxCell%3E%3CmxCell%20id%3D%225%22%20value%3D%22-%20speed%3A%20float%22%20style%3D%22text%3Balign%3Dleft%3BverticalAlign%3Dtop%3BspacingLeft%3D4%3BspacingRight%3D4%3Boverflow%3Dhidden%3Brotatable%3D0%3Bpoints%3D%5B%5B0%2C0.5%5D%2C%5B1%2C0.5%5D%5D%3BportConstraint%3Deastwest%3Brounded%3D0%3Bshadow%3D0%3Bhtml%3D0%3B%22%20vertex%3D%221%22%20parent%3D%222%22%3E%3CmxGeometry%20y%3D%2278%22%20width%3D%22180%22%20height%3D%2226%22%20as%3D%22geometry%22%2F%3E%3C%2FmxCell%3E%3CmxCell%20id%3D%226%22%20value%3D%22%22%20style%3D%22line%3Bhtml%3D1%3BstrokeWidth%3D1%3Balign%3Dleft%3BverticalAlign%3Dmiddle%3BspacingTop%3D-1%3BspacingLeft%3D3%3BspacingRight%3D3%3Brotatable%3D0%3BlabelPosition%3Dright%3Bpoints%3D%5B%5D%3BportConstraint%3Deastwest%3B%22%20vertex%3D%221%22%20parent%3D%222%22%3E%3CmxGeometry%20y%3D%22104%22%20width%3D%22180%22%20height%3D%228%22%20as%3D%22geometry%22%2F%3E%3C%2FmxCell%3E%3CmxCell%20id%3D%227%22%20value%3D%22%2B%20ToString()%3A%20string%26%2310%3B%2B%20GetTypeOfVehicle()%3A%20string%26%2310%3B%2B%20GetPlate()%3A%20string%26%2310%3B%2B%20GetSpeed()%3A%20float%26%2310%3B%2B%20SetSpeed(speed%3A%20float)%3A%20void%22%20style%3D%22text%3Balign%3Dleft%3BverticalAlign%3Dtop%3BspacingLeft%3D4%3BspacingRight%3D4%3Boverflow%3Dhidden%3Brotatable%3D0%3Bpoints%3D%5B%5B0%2C0.5%5D%2C%5B1%2C0.5%5D%5D%3BportConstraint%3Deastwest%3B%22%20vertex%3D%221%22%20parent%3D%222%22%3E%3CmxGeometry%20y%3D%22112%22%20width%3D%22180%22%20height%3D%2288%22%20as%3D%22geometry%22%2F%3E%3C%2FmxCell%3E%3C%2Froot%3E%3C%2FmxGraphModel%3E&lt;/span&gt;" style="endArrow=block;html=1;rounded=0;endFill=0;entryX=1;entryY=0.5;entryDx=0;entryDy=0;exitX=0.5;exitY=0;exitDx=0;exitDy=0;" parent="WIyWlLk6GJQsqaUBKTNV-1" source="KwqhPXOGH3jLfrvKoqNU-48" target="u4cU2ETFYuCaejH-93tJ-5" edge="1">
          <mxGeometry width="50" height="50" relative="1" as="geometry">
            <mxPoint x="460" y="395" as="sourcePoint" />
            <mxPoint x="290" y="285" as="targetPoint" />
            <Array as="points">
              <mxPoint x="330" y="499" />
            </Array>
          </mxGeometry>
        </mxCell>
        <mxCell id="KwqhPXOGH3jLfrvKoqNU-39" value="&lt;&lt;interface&gt;&gt;&#xa;IMessageWritter&#xa;" style="swimlane;fontStyle=0;align=center;verticalAlign=top;childLayout=stackLayout;horizontal=1;startSize=40;horizontalStack=0;resizeParent=1;resizeLast=0;collapsible=1;marginBottom=0;rounded=0;shadow=0;strokeWidth=2;" parent="WIyWlLk6GJQsqaUBKTNV-1" vertex="1">
          <mxGeometry x="510" y="317" width="190" height="120" as="geometry">
            <mxRectangle x="230" y="140" width="160" height="26" as="alternateBounds" />
          </mxGeometry>
        </mxCell>
        <mxCell id="KwqhPXOGH3jLfrvKoqNU-40" value=" " style="text;align=left;verticalAlign=top;spacingLeft=4;spacingRight=4;overflow=hidden;rotatable=0;points=[[0,0.5],[1,0.5]];portConstraint=eastwest;" parent="KwqhPXOGH3jLfrvKoqNU-39" vertex="1">
          <mxGeometry y="40" width="190" height="26" as="geometry" />
        </mxCell>
        <mxCell id="KwqhPXOGH3jLfrvKoqNU-43" value="" style="line;html=1;strokeWidth=1;align=left;verticalAlign=middle;spacingTop=-1;spacingLeft=3;spacingRight=3;rotatable=0;labelPosition=right;points=[];portConstraint=eastwest;" parent="KwqhPXOGH3jLfrvKoqNU-39" vertex="1">
          <mxGeometry y="66" width="190" height="8" as="geometry" />
        </mxCell>
        <mxCell id="KwqhPXOGH3jLfrvKoqNU-44" value="+ WriteMessage(customMessage:&#xa;string): string" style="text;align=left;verticalAlign=top;spacingLeft=4;spacingRight=4;overflow=hidden;rotatable=0;points=[[0,0.5],[1,0.5]];portConstraint=eastwest;" parent="KwqhPXOGH3jLfrvKoqNU-39" vertex="1">
          <mxGeometry y="74" width="190" height="46" as="geometry" />
        </mxCell>
        <mxCell id="KwqhPXOGH3jLfrvKoqNU-48" value="PoliceCar" style="swimlane;fontStyle=0;align=center;verticalAlign=top;childLayout=stackLayout;horizontal=1;startSize=26;horizontalStack=0;resizeParent=1;resizeLast=0;collapsible=1;marginBottom=0;rounded=0;shadow=0;strokeWidth=2;" parent="WIyWlLk6GJQsqaUBKTNV-1" vertex="1">
          <mxGeometry x="230" y="543" width="200" height="260" as="geometry">
            <mxRectangle x="550" y="140" width="160" height="26" as="alternateBounds" />
          </mxGeometry>
        </mxCell>
        <mxCell id="KwqhPXOGH3jLfrvKoqNU-49" value="- isPatrolling: bool&#xa;- speedRadar: SpeedRadar&#xa;- typeOfVehicle: string&#xa;- chasingVehicle: bool&#xa;- policeStation: PoliceStation" style="text;align=left;verticalAlign=top;spacingLeft=4;spacingRight=4;overflow=hidden;rotatable=0;points=[[0,0.5],[1,0.5]];portConstraint=eastwest;rounded=0;shadow=0;html=0;fontStyle=0" parent="KwqhPXOGH3jLfrvKoqNU-48" vertex="1">
          <mxGeometry y="26" width="200" height="74" as="geometry" />
        </mxCell>
        <mxCell id="KwqhPXOGH3jLfrvKoqNU-50" value="" style="line;html=1;strokeWidth=1;align=left;verticalAlign=middle;spacingTop=-1;spacingLeft=3;spacingRight=3;rotatable=0;labelPosition=right;points=[];portConstraint=eastwest;" parent="KwqhPXOGH3jLfrvKoqNU-48" vertex="1">
          <mxGeometry y="100" width="200" height="8" as="geometry" />
        </mxCell>
        <mxCell id="KwqhPXOGH3jLfrvKoqNU-51" value="+ UseRadar(vehicle: Vehicle): void&#xa;+ IsPatrolling(): bool&#xa;+ IsChasing(): bool&#xa;+ SetIsChasing(chasing: bool): void&#xa;+ StartPatrolling(): void&#xa;+ EndPatrolling(): void&#xa;+ PrintRadarHistory(): void&#xa;+ StartChasing(): void&#xa;+ ReceiveAlert(): void&#xa;+ DeactivateAlert(): void" style="text;align=left;verticalAlign=top;spacingLeft=4;spacingRight=4;overflow=hidden;rotatable=0;points=[[0,0.5],[1,0.5]];portConstraint=eastwest;" parent="KwqhPXOGH3jLfrvKoqNU-48" vertex="1">
          <mxGeometry y="108" width="200" height="152" as="geometry" />
        </mxCell>
        <mxCell id="qhV2HsPqUMdHF9g2U4a6-0" value="PoliceStation" style="swimlane;fontStyle=0;align=center;verticalAlign=top;childLayout=stackLayout;horizontal=1;startSize=26;horizontalStack=0;resizeParent=1;resizeLast=0;collapsible=1;marginBottom=0;rounded=0;shadow=0;strokeWidth=2;" parent="WIyWlLk6GJQsqaUBKTNV-1" vertex="1">
          <mxGeometry x="430" y="830" width="270" height="150" as="geometry">
            <mxRectangle x="130" y="380" width="160" height="26" as="alternateBounds" />
          </mxGeometry>
        </mxCell>
        <mxCell id="qhV2HsPqUMdHF9g2U4a6-1" value="- policeCars: List&lt;Police&gt;&#xa;- alert: bool&#xa;&#xa;" style="text;align=left;verticalAlign=top;spacingLeft=4;spacingRight=4;overflow=hidden;rotatable=0;points=[[0,0.5],[1,0.5]];portConstraint=eastwest;fontStyle=0" parent="qhV2HsPqUMdHF9g2U4a6-0" vertex="1">
          <mxGeometry y="26" width="270" height="34" as="geometry" />
        </mxCell>
        <mxCell id="qhV2HsPqUMdHF9g2U4a6-2" value="" style="line;html=1;strokeWidth=1;align=left;verticalAlign=middle;spacingTop=-1;spacingLeft=3;spacingRight=3;rotatable=0;labelPosition=right;points=[];portConstraint=eastwest;" parent="qhV2HsPqUMdHF9g2U4a6-0" vertex="1">
          <mxGeometry y="60" width="270" height="18" as="geometry" />
        </mxCell>
        <mxCell id="qhV2HsPqUMdHF9g2U4a6-3" value="+ RegisterPoliceCars(policeCar: PoliceCar): void&#xa;+ NotifyPoliceCars(): void&#xa;+ ActivateAlert(plate: string): void&#xa;+ StopChasing(): void" style="text;align=left;verticalAlign=top;spacingLeft=4;spacingRight=4;overflow=hidden;rotatable=0;points=[[0,0.5],[1,0.5]];portConstraint=eastwest;fontStyle=0" parent="qhV2HsPqUMdHF9g2U4a6-0" vertex="1">
          <mxGeometry y="78" width="270" height="72" as="geometry" />
        </mxCell>
        <mxCell id="qhV2HsPqUMdHF9g2U4a6-4" value="City" style="swimlane;fontStyle=0;align=center;verticalAlign=top;childLayout=stackLayout;horizontal=1;startSize=26;horizontalStack=0;resizeParent=1;resizeLast=0;collapsible=1;marginBottom=0;rounded=0;shadow=0;strokeWidth=2;" parent="WIyWlLk6GJQsqaUBKTNV-1" vertex="1">
          <mxGeometry x="147" y="835" width="189" height="140" as="geometry">
            <mxRectangle x="130" y="380" width="160" height="26" as="alternateBounds" />
          </mxGeometry>
        </mxCell>
        <mxCell id="qhV2HsPqUMdHF9g2U4a6-5" value="- taxis: List&lt;Taxi&gt;&#xa;- policeStation: PoliceStation" style="text;align=left;verticalAlign=top;spacingLeft=4;spacingRight=4;overflow=hidden;rotatable=0;points=[[0,0.5],[1,0.5]];portConstraint=eastwest;fontStyle=0" parent="qhV2HsPqUMdHF9g2U4a6-4" vertex="1">
          <mxGeometry y="26" width="189" height="44" as="geometry" />
        </mxCell>
        <mxCell id="qhV2HsPqUMdHF9g2U4a6-6" value="" style="line;html=1;strokeWidth=1;align=left;verticalAlign=middle;spacingTop=-1;spacingLeft=3;spacingRight=3;rotatable=0;labelPosition=right;points=[];portConstraint=eastwest;" parent="qhV2HsPqUMdHF9g2U4a6-4" vertex="1">
          <mxGeometry y="70" width="189" height="18" as="geometry" />
        </mxCell>
        <mxCell id="qhV2HsPqUMdHF9g2U4a6-7" value="+ RegisterTaxi(taxi: Taxi): void&#xa;+ RemoveTaxi(taxi: Taxi): void" style="text;align=left;verticalAlign=top;spacingLeft=4;spacingRight=4;overflow=hidden;rotatable=0;points=[[0,0.5],[1,0.5]];portConstraint=eastwest;fontStyle=0" parent="qhV2HsPqUMdHF9g2U4a6-4" vertex="1">
          <mxGeometry y="88" width="189" height="52" as="geometry" />
        </mxCell>
        <mxCell id="m45eDHMz9nTLNU7yBa6A-1" value="" style="endArrow=diamond;html=1;rounded=0;fontSize=12;startSize=8;endSize=8;curved=1;exitX=0;exitY=0.5;exitDx=0;exitDy=0;endFill=1;entryX=1;entryY=0.5;entryDx=0;entryDy=0;" parent="WIyWlLk6GJQsqaUBKTNV-1" source="qhV2HsPqUMdHF9g2U4a6-0" target="qhV2HsPqUMdHF9g2U4a6-4" edge="1">
          <mxGeometry width="50" height="50" relative="1" as="geometry">
            <mxPoint x="340" y="980" as="sourcePoint" />
            <mxPoint x="440" y="870" as="targetPoint" />
          </mxGeometry>
        </mxCell>
        <mxCell id="m45eDHMz9nTLNU7yBa6A-9" value="" style="endArrow=none;html=1;rounded=0;endFill=0;exitX=1;exitY=0.25;exitDx=0;exitDy=0;startArrow=diamond;startFill=0;entryX=0;entryY=0.5;entryDx=0;entryDy=0;" parent="WIyWlLk6GJQsqaUBKTNV-1" source="KwqhPXOGH3jLfrvKoqNU-48" target="zkfFHV4jXpPFQw0GAbJ--7" edge="1">
          <mxGeometry width="50" height="50" relative="1" as="geometry">
            <mxPoint x="480" y="420" as="sourcePoint" />
            <mxPoint x="440" y="550" as="targetPoint" />
            <Array as="points" />
          </mxGeometry>
        </mxCell>
        <mxCell id="m45eDHMz9nTLNU7yBa6A-13" value="" style="endArrow=none;html=1;rounded=0;endFill=0;exitX=0;exitY=0.5;exitDx=0;exitDy=0;startArrow=diamond;startFill=1;entryX=0.25;entryY=1;entryDx=0;entryDy=0;" parent="WIyWlLk6GJQsqaUBKTNV-1" source="qhV2HsPqUMdHF9g2U4a6-4" target="zkfFHV4jXpPFQw0GAbJ--17" edge="1">
          <mxGeometry width="50" height="50" relative="1" as="geometry">
            <mxPoint x="500" y="460" as="sourcePoint" />
            <mxPoint x="430" y="572" as="targetPoint" />
            <Array as="points">
              <mxPoint x="75" y="905" />
            </Array>
          </mxGeometry>
        </mxCell>
        <mxCell id="QtRQPQwQ2qKMTUayEpy2-0" value="Scooter" style="swimlane;fontStyle=0;align=center;verticalAlign=top;childLayout=stackLayout;horizontal=1;startSize=26;horizontalStack=0;resizeParent=1;resizeLast=0;collapsible=1;marginBottom=0;rounded=0;shadow=0;strokeWidth=2;" parent="WIyWlLk6GJQsqaUBKTNV-1" vertex="1">
          <mxGeometry x="240" y="120" width="180" height="120" as="geometry">
            <mxRectangle x="550" y="140" width="160" height="26" as="alternateBounds" />
          </mxGeometry>
        </mxCell>
        <mxCell id="QtRQPQwQ2qKMTUayEpy2-1" value="- typeOfVehicle: string&#xa;- plate: string" style="text;align=left;verticalAlign=top;spacingLeft=4;spacingRight=4;overflow=hidden;rotatable=0;points=[[0,0.5],[1,0.5]];portConstraint=eastwest;rounded=0;shadow=0;html=0;" parent="QtRQPQwQ2qKMTUayEpy2-0" vertex="1">
          <mxGeometry y="26" width="180" height="44" as="geometry" />
        </mxCell>
        <mxCell id="QtRQPQwQ2qKMTUayEpy2-2" value="" style="line;html=1;strokeWidth=1;align=left;verticalAlign=middle;spacingTop=-1;spacingLeft=3;spacingRight=3;rotatable=0;labelPosition=right;points=[];portConstraint=eastwest;" parent="QtRQPQwQ2qKMTUayEpy2-0" vertex="1">
          <mxGeometry y="70" width="180" height="8" as="geometry" />
        </mxCell>
        <mxCell id="QtRQPQwQ2qKMTUayEpy2-4" value="" style="endArrow=block;html=1;rounded=0;endFill=0;entryX=0.5;entryY=0;entryDx=0;entryDy=0;exitX=0.5;exitY=1;exitDx=0;exitDy=0;" parent="WIyWlLk6GJQsqaUBKTNV-1" source="QtRQPQwQ2qKMTUayEpy2-0" target="zkfFHV4jXpPFQw0GAbJ--0" edge="1">
          <mxGeometry width="50" height="50" relative="1" as="geometry">
            <mxPoint x="330" y="160" as="sourcePoint" />
            <mxPoint x="380" y="94" as="targetPoint" />
            <Array as="points" />
          </mxGeometry>
        </mxCell>
        <mxCell id="QtRQPQwQ2qKMTUayEpy2-7" value="" style="endArrow=block;html=1;rounded=0;endFill=0;entryX=0;entryY=0.5;entryDx=0;entryDy=0;exitX=1;exitY=0.5;exitDx=0;exitDy=0;dashed=1;" parent="WIyWlLk6GJQsqaUBKTNV-1" source="zkfFHV4jXpPFQw0GAbJ--1" target="KwqhPXOGH3jLfrvKoqNU-40" edge="1">
          <mxGeometry width="50" height="50" relative="1" as="geometry">
            <mxPoint x="430" y="178" as="sourcePoint" />
            <mxPoint x="580" y="223" as="targetPoint" />
            <Array as="points">
              <mxPoint x="470" y="350" />
              <mxPoint x="470" y="370" />
            </Array>
          </mxGeometry>
        </mxCell>
        <mxCell id="QtRQPQwQ2qKMTUayEpy2-8" value="" style="endArrow=block;html=1;rounded=0;endFill=0;dashed=1;exitX=0.25;exitY=0;exitDx=0;exitDy=0;entryX=0.499;entryY=0.98;entryDx=0;entryDy=0;entryPerimeter=0;" parent="WIyWlLk6GJQsqaUBKTNV-1" source="zkfFHV4jXpPFQw0GAbJ--6" target="KwqhPXOGH3jLfrvKoqNU-44" edge="1">
          <mxGeometry width="50" height="50" relative="1" as="geometry">
            <mxPoint x="770" y="450" as="sourcePoint" />
            <mxPoint x="710" y="300" as="targetPoint" />
            <Array as="points">
              <mxPoint x="533" y="480" />
              <mxPoint x="605" y="480" />
            </Array>
          </mxGeometry>
        </mxCell>
        <mxCell id="QtRQPQwQ2qKMTUayEpy2-9" value="" style="endArrow=none;html=1;rounded=0;endFill=0;exitX=1;exitY=0.5;exitDx=0;exitDy=0;startArrow=none;startFill=0;entryX=0.5;entryY=0;entryDx=0;entryDy=0;" parent="WIyWlLk6GJQsqaUBKTNV-1" source="KwqhPXOGH3jLfrvKoqNU-51" target="qhV2HsPqUMdHF9g2U4a6-0" edge="1">
          <mxGeometry width="50" height="50" relative="1" as="geometry">
            <mxPoint x="510" y="605" as="sourcePoint" />
            <mxPoint x="570" y="605" as="targetPoint" />
            <Array as="points">
              <mxPoint x="565" y="727" />
            </Array>
          </mxGeometry>
        </mxCell>
        <mxCell id="QtRQPQwQ2qKMTUayEpy2-11" value="" style="endArrow=block;html=1;rounded=0;endFill=0;dashed=1;exitX=1;exitY=0.5;exitDx=0;exitDy=0;entryX=1;entryY=0.25;entryDx=0;entryDy=0;" parent="WIyWlLk6GJQsqaUBKTNV-1" source="qhV2HsPqUMdHF9g2U4a6-7" target="KwqhPXOGH3jLfrvKoqNU-39" edge="1">
          <mxGeometry width="50" height="50" relative="1" as="geometry">
            <mxPoint x="543" y="560" as="sourcePoint" />
            <mxPoint x="615" y="446" as="targetPoint" />
            <Array as="points">
              <mxPoint x="390" y="949" />
              <mxPoint x="390" y="1020" />
              <mxPoint x="770" y="1020" />
              <mxPoint x="770" y="347" />
            </Array>
          </mxGeometry>
        </mxCell>
        <mxCell id="QtRQPQwQ2qKMTUayEpy2-12" value="" style="endArrow=block;html=1;rounded=0;endFill=0;dashed=1;exitX=1;exitY=0.5;exitDx=0;exitDy=0;entryX=1;entryY=0.5;entryDx=0;entryDy=0;" parent="WIyWlLk6GJQsqaUBKTNV-1" source="qhV2HsPqUMdHF9g2U4a6-0" target="KwqhPXOGH3jLfrvKoqNU-44" edge="1">
          <mxGeometry width="50" height="50" relative="1" as="geometry">
            <mxPoint x="543" y="560" as="sourcePoint" />
            <mxPoint x="615" y="446" as="targetPoint" />
            <Array as="points">
              <mxPoint x="740" y="905" />
              <mxPoint x="740" y="414" />
            </Array>
          </mxGeometry>
        </mxCell>
        <mxCell id="u4cU2ETFYuCaejH-93tJ-0" value="VehicleWithPlate" style="swimlane;fontStyle=2;align=center;verticalAlign=top;childLayout=stackLayout;horizontal=1;startSize=26;horizontalStack=0;resizeParent=1;resizeLast=0;collapsible=1;marginBottom=0;rounded=0;shadow=0;strokeWidth=2;" vertex="1" parent="WIyWlLk6GJQsqaUBKTNV-1">
          <mxGeometry x="20" y="410" width="180" height="110" as="geometry">
            <mxRectangle x="230" y="140" width="160" height="26" as="alternateBounds" />
          </mxGeometry>
        </mxCell>
        <mxCell id="u4cU2ETFYuCaejH-93tJ-1" value="- typeOfVehicle: string&#xa;- plate: string" style="text;align=left;verticalAlign=top;spacingLeft=4;spacingRight=4;overflow=hidden;rotatable=0;points=[[0,0.5],[1,0.5]];portConstraint=eastwest;" vertex="1" parent="u4cU2ETFYuCaejH-93tJ-0">
          <mxGeometry y="26" width="180" height="34" as="geometry" />
        </mxCell>
        <mxCell id="u4cU2ETFYuCaejH-93tJ-4" value="" style="line;html=1;strokeWidth=1;align=left;verticalAlign=middle;spacingTop=-1;spacingLeft=3;spacingRight=3;rotatable=0;labelPosition=right;points=[];portConstraint=eastwest;" vertex="1" parent="u4cU2ETFYuCaejH-93tJ-0">
          <mxGeometry y="60" width="180" height="8" as="geometry" />
        </mxCell>
        <mxCell id="u4cU2ETFYuCaejH-93tJ-5" value="+ ToString(): string&#xa;+ GetPlate(): string" style="text;align=left;verticalAlign=top;spacingLeft=4;spacingRight=4;overflow=hidden;rotatable=0;points=[[0,0.5],[1,0.5]];portConstraint=eastwest;" vertex="1" parent="u4cU2ETFYuCaejH-93tJ-0">
          <mxGeometry y="68" width="180" height="42" as="geometry" />
        </mxCell>
        <mxCell id="u4cU2ETFYuCaejH-93tJ-6" value="&lt;span style=&quot;color: rgba(0, 0, 0, 0); font-family: monospace; font-size: 0px; text-align: start; background-color: rgb(251, 251, 251);&quot;&gt;%3CmxGraphModel%3E%3Croot%3E%3CmxCell%20id%3D%220%22%2F%3E%3CmxCell%20id%3D%221%22%20parent%3D%220%22%2F%3E%3CmxCell%20id%3D%222%22%20value%3D%22Vehicle%22%20style%3D%22swimlane%3BfontStyle%3D2%3Balign%3Dcenter%3BverticalAlign%3Dtop%3BchildLayout%3DstackLayout%3Bhorizontal%3D1%3BstartSize%3D26%3BhorizontalStack%3D0%3BresizeParent%3D1%3BresizeLast%3D0%3Bcollapsible%3D1%3BmarginBottom%3D0%3Brounded%3D0%3Bshadow%3D0%3BstrokeWidth%3D2%3B%22%20vertex%3D%221%22%20parent%3D%221%22%3E%3CmxGeometry%20x%3D%22240%22%20y%3D%22300%22%20width%3D%22180%22%20height%3D%22200%22%20as%3D%22geometry%22%3E%3CmxRectangle%20x%3D%22230%22%20y%3D%22140%22%20width%3D%22160%22%20height%3D%2226%22%20as%3D%22alternateBounds%22%2F%3E%3C%2FmxGeometry%3E%3C%2FmxCell%3E%3CmxCell%20id%3D%223%22%20value%3D%22-%20typeOfVehicle%3A%20string%22%20style%3D%22text%3Balign%3Dleft%3BverticalAlign%3Dtop%3BspacingLeft%3D4%3BspacingRight%3D4%3Boverflow%3Dhidden%3Brotatable%3D0%3Bpoints%3D%5B%5B0%2C0.5%5D%2C%5B1%2C0.5%5D%5D%3BportConstraint%3Deastwest%3B%22%20vertex%3D%221%22%20parent%3D%222%22%3E%3CmxGeometry%20y%3D%2226%22%20width%3D%22180%22%20height%3D%2226%22%20as%3D%22geometry%22%2F%3E%3C%2FmxCell%3E%3CmxCell%20id%3D%224%22%20value%3D%22-%20plate%3A%20string%22%20style%3D%22text%3Balign%3Dleft%3BverticalAlign%3Dtop%3BspacingLeft%3D4%3BspacingRight%3D4%3Boverflow%3Dhidden%3Brotatable%3D0%3Bpoints%3D%5B%5B0%2C0.5%5D%2C%5B1%2C0.5%5D%5D%3BportConstraint%3Deastwest%3Brounded%3D0%3Bshadow%3D0%3Bhtml%3D0%3B%22%20vertex%3D%221%22%20parent%3D%222%22%3E%3CmxGeometry%20y%3D%2252%22%20width%3D%22180%22%20height%3D%2226%22%20as%3D%22geometry%22%2F%3E%3C%2FmxCell%3E%3CmxCell%20id%3D%225%22%20value%3D%22-%20speed%3A%20float%22%20style%3D%22text%3Balign%3Dleft%3BverticalAlign%3Dtop%3BspacingLeft%3D4%3BspacingRight%3D4%3Boverflow%3Dhidden%3Brotatable%3D0%3Bpoints%3D%5B%5B0%2C0.5%5D%2C%5B1%2C0.5%5D%5D%3BportConstraint%3Deastwest%3Brounded%3D0%3Bshadow%3D0%3Bhtml%3D0%3B%22%20vertex%3D%221%22%20parent%3D%222%22%3E%3CmxGeometry%20y%3D%2278%22%20width%3D%22180%22%20height%3D%2226%22%20as%3D%22geometry%22%2F%3E%3C%2FmxCell%3E%3CmxCell%20id%3D%226%22%20value%3D%22%22%20style%3D%22line%3Bhtml%3D1%3BstrokeWidth%3D1%3Balign%3Dleft%3BverticalAlign%3Dmiddle%3BspacingTop%3D-1%3BspacingLeft%3D3%3BspacingRight%3D3%3Brotatable%3D0%3BlabelPosition%3Dright%3Bpoints%3D%5B%5D%3BportConstraint%3Deastwest%3B%22%20vertex%3D%221%22%20parent%3D%222%22%3E%3CmxGeometry%20y%3D%22104%22%20width%3D%22180%22%20height%3D%228%22%20as%3D%22geometry%22%2F%3E%3C%2FmxCell%3E%3CmxCell%20id%3D%227%22%20value%3D%22%2B%20ToString()%3A%20string%26%2310%3B%2B%20GetTypeOfVehicle()%3A%20string%26%2310%3B%2B%20GetPlate()%3A%20string%26%2310%3B%2B%20GetSpeed()%3A%20float%26%2310%3B%2B%20SetSpeed(speed%3A%20float)%3A%20void%22%20style%3D%22text%3Balign%3Dleft%3BverticalAlign%3Dtop%3BspacingLeft%3D4%3BspacingRight%3D4%3Boverflow%3Dhidden%3Brotatable%3D0%3Bpoints%3D%5B%5B0%2C0.5%5D%2C%5B1%2C0.5%5D%5D%3BportConstraint%3Deastwest%3B%22%20vertex%3D%221%22%20parent%3D%222%22%3E%3CmxGeometry%20y%3D%22112%22%20width%3D%22180%22%20height%3D%2288%22%20as%3D%22geometry%22%2F%3E%3C%2FmxCell%3E%3C%2Froot%3E%3C%2FmxGraphModel%3E&lt;/span&gt;" style="endArrow=block;html=1;rounded=0;endFill=0;entryX=0.549;entryY=1.003;entryDx=0;entryDy=0;exitX=0.5;exitY=0;exitDx=0;exitDy=0;entryPerimeter=0;" edge="1" parent="WIyWlLk6GJQsqaUBKTNV-1" source="zkfFHV4jXpPFQw0GAbJ--17" target="u4cU2ETFYuCaejH-93tJ-5">
          <mxGeometry width="50" height="50" relative="1" as="geometry">
            <mxPoint x="340" y="553" as="sourcePoint" />
            <mxPoint x="210" y="509" as="targetPoint" />
            <Array as="points" />
          </mxGeometry>
        </mxCell>
      </root>
    </mxGraphModel>
  </diagram>
</mxfile>
